<svg xmlns="http://www.w3.org/2000/svg" width="572" height="692" viewBox="0 0 572 692">
<rect x="0" y="0" width="100%" height="100%" fill="white"/>
<rect x="40" y="40" width="12" height="12" fill="black"/>
<rect x="52" y="40" width="12" height="12" fill="black"/>
<rect x="64" y="40" width="12" height="12" fill="black"/>
<rect x="76" y="40" width="12" height="12" fill="black"/>
<rect x="88" y="40" width="12" height="12" fill="black"/>
<rect x="100" y="40" width="12" height="12" fill="black"/>
<rect x="112" y="40" width="12" height="12" fill="black"/>
<rect x="124" y="40" width="12" height="12" fill="black"/>
<rect x="136" y="40" width="12" height="12" fill="black"/>
<rect x="148" y="40" width="12" height="12" fill="black"/>
<rect x="160" y="40" width="12" height="12" fill="black"/>
<rect x="172" y="40" width="12" height="12" fill="black"/>
<rect x="184" y="40" width="12" height="12" fill="black"/>
<rect x="196" y="40" width="12" height="12" fill="black"/>
<rect x="208" y="40" width="12" height="12" fill="black"/>
<rect x="220" y="40" width="12" height="12" fill="black"/>
<rect x="232" y="40" width="12" height="12" fill="black"/>
<rect x="244" y="40" width="12" height="12" fill="black"/>
<rect x="256" y="40" width="12" height="12" fill="black"/>
<rect x="268" y="40" width="12" height="12" fill="black"/>
<rect x="280" y="40" width="12" height="12" fill="black"/>
<rect x="292" y="40" width="12" height="12" fill="black"/>
<rect x="304" y="40" width="12" height="12" fill="black"/>
<rect x="316" y="40" width="12" height="12" fill="black"/>
<rect x="328" y="40" width="12" height="12" fill="black"/>
<rect x="340" y="40" width="12" height="12" fill="black"/>
<rect x="352" y="40" width="12" height="12" fill="black"/>
<rect x="364" y="40" width="12" height="12" fill="black"/>
<rect x="376" y="40" width="12" height="12" fill="black"/>
<rect x="388" y="40" width="12" height="12" fill="black"/>
<rect x="400" y="40" width="12" height="12" fill="black"/>
<rect x="412" y="40" width="12" height="12" fill="black"/>
<rect x="424" y="40" width="12" height="12" fill="black"/>
<rect x="436" y="40" width="12" height="12" fill="black"/>
<rect x="448" y="40" width="12" height="12" fill="black"/>
<rect x="460" y="40" width="12" height="12" fill="black"/>
<rect x="472" y="40" width="12" height="12" fill="black"/>
<rect x="484" y="40" width="12" height="12" fill="black"/>
<rect x="496" y="40" width="12" height="12" fill="black"/>
<rect x="508" y="40" width="12" height="12" fill="black"/>
<rect x="520" y="40" width="12" height="12" fill="black"/>
<rect x="40" y="52" width="12" height="12" fill="black"/>
<rect x="52" y="52" width="12" height="12" fill="black"/>
<rect x="64" y="52" width="12" height="12" fill="black"/>
<rect x="76" y="52" width="12" height="12" fill="black"/>
<rect x="88" y="52" width="12" height="12" fill="black"/>
<rect x="100" y="52" width="12" height="12" fill="black"/>
<rect x="112" y="52" width="12" height="12" fill="black"/>
<rect x="124" y="52" width="12" height="12" fill="black"/>
<rect x="136" y="52" width="12" height="12" fill="black"/>
<rect x="148" y="52" width="12" height="12" fill="black"/>
<rect x="160" y="52" width="12" height="12" fill="black"/>
<rect x="172" y="52" width="12" height="12" fill="black"/>
<rect x="184" y="52" width="12" height="12" fill="black"/>
<rect x="196" y="52" width="12" height="12" fill="black"/>
<rect x="208" y="52" width="12" height="12" fill="black"/>
<rect x="220" y="52" width="12" height="12" fill="black"/>
<rect x="232" y="52" width="12" height="12" fill="black"/>
<rect x="244" y="52" width="12" height="12" fill="black"/>
<rect x="256" y="52" width="12" height="12" fill="black"/>
<rect x="268" y="52" width="12" height="12" fill="black"/>
<rect x="280" y="52" width="12" height="12" fill="black"/>
<rect x="292" y="52" width="12" height="12" fill="black"/>
<rect x="304" y="52" width="12" height="12" fill="black"/>
<rect x="316" y="52" width="12" height="12" fill="black"/>
<rect x="328" y="52" width="12" height="12" fill="black"/>
<rect x="340" y="52" width="12" height="12" fill="black"/>
<rect x="352" y="52" width="12" height="12" fill="black"/>
<rect x="364" y="52" width="12" height="12" fill="black"/>
<rect x="376" y="52" width="12" height="12" fill="black"/>
<rect x="388" y="52" width="12" height="12" fill="black"/>
<rect x="400" y="52" width="12" height="12" fill="black"/>
<rect x="412" y="52" width="12" height="12" fill="black"/>
<rect x="424" y="52" width="12" height="12" fill="black"/>
<rect x="436" y="52" width="12" height="12" fill="black"/>
<rect x="448" y="52" width="12" height="12" fill="black"/>
<rect x="460" y="52" width="12" height="12" fill="black"/>
<rect x="472" y="52" width="12" height="12" fill="black"/>
<rect x="484" y="52" width="12" height="12" fill="black"/>
<rect x="496" y="52" width="12" height="12" fill="black"/>
<rect x="508" y="52" width="12" height="12" fill="black"/>
<rect x="520" y="52" width="12" height="12" fill="black"/>
<rect x="40" y="64" width="12" height="12" fill="black"/>
<rect x="52" y="64" width="12" height="12" fill="black"/>
<rect x="64" y="64" width="12" height="12" fill="black"/>
<rect x="76" y="64" width="12" height="12" fill="black"/>
<rect x="88" y="64" width="12" height="12" fill="black"/>
<rect x="100" y="64" width="12" height="12" fill="black"/>
<rect x="112" y="64" width="12" height="12" fill="black"/>
<rect x="124" y="64" width="12" height="12" fill="black"/>
<rect x="136" y="64" width="12" height="12" fill="black"/>
<rect x="160" y="64" width="12" height="12" fill="black"/>
<rect x="196" y="64" width="12" height="12" fill="black"/>
<rect x="256" y="64" width="12" height="12" fill="black"/>
<rect x="304" y="64" width="12" height="12" fill="black"/>
<rect x="328" y="64" width="12" height="12" fill="black"/>
<rect x="352" y="64" width="12" height="12" fill="black"/>
<rect x="388" y="64" width="12" height="12" fill="black"/>
<rect x="400" y="64" width="12" height="12" fill="black"/>
<rect x="424" y="64" width="12" height="12" fill="black"/>
<rect x="436" y="64" width="12" height="12" fill="black"/>
<rect x="448" y="64" width="12" height="12" fill="black"/>
<rect x="460" y="64" width="12" height="12" fill="black"/>
<rect x="472" y="64" width="12" height="12" fill="black"/>
<rect x="484" y="64" width="12" height="12" fill="black"/>
<rect x="496" y="64" width="12" height="12" fill="black"/>
<rect x="508" y="64" width="12" height="12" fill="black"/>
<rect x="520" y="64" width="12" height="12" fill="black"/>
<rect x="40" y="76" width="12" height="12" fill="black"/>
<rect x="52" y="76" width="12" height="12" fill="black"/>
<rect x="64" y="76" width="12" height="12" fill="black"/>
<rect x="136" y="76" width="12" height="12" fill="black"/>
<rect x="172" y="76" width="12" height="12" fill="black"/>
<rect x="208" y="76" width="12" height="12" fill="black"/>
<rect x="220" y="76" width="12" height="12" fill="black"/>
<rect x="268" y="76" width="12" height="12" fill="black"/>
<rect x="304" y="76" width="12" height="12" fill="black"/>
<rect x="316" y="76" width="12" height="12" fill="black"/>
<rect x="328" y="76" width="12" height="12" fill="black"/>
<rect x="340" y="76" width="12" height="12" fill="black"/>
<rect x="376" y="76" width="12" height="12" fill="black"/>
<rect x="424" y="76" width="12" height="12" fill="black"/>
<rect x="496" y="76" width="12" height="12" fill="black"/>
<rect x="508" y="76" width="12" height="12" fill="black"/>
<rect x="520" y="76" width="12" height="12" fill="black"/>
<rect x="40" y="88" width="12" height="12" fill="black"/>
<rect x="52" y="88" width="12" height="12" fill="black"/>
<rect x="64" y="88" width="12" height="12" fill="black"/>
<rect x="88" y="88" width="12" height="12" fill="black"/>
<rect x="100" y="88" width="12" height="12" fill="black"/>
<rect x="112" y="88" width="12" height="12" fill="black"/>
<rect x="136" y="88" width="12" height="12" fill="black"/>
<rect x="184" y="88" width="12" height="12" fill="black"/>
<rect x="208" y="88" width="12" height="12" fill="black"/>
<rect x="232" y="88" width="12" height="12" fill="black"/>
<rect x="280" y="88" width="12" height="12" fill="black"/>
<rect x="304" y="88" width="12" height="12" fill="black"/>
<rect x="328" y="88" width="12" height="12" fill="black"/>
<rect x="388" y="88" width="12" height="12" fill="black"/>
<rect x="412" y="88" width="12" height="12" fill="black"/>
<rect x="424" y="88" width="12" height="12" fill="black"/>
<rect x="448" y="88" width="12" height="12" fill="black"/>
<rect x="460" y="88" width="12" height="12" fill="black"/>
<rect x="472" y="88" width="12" height="12" fill="black"/>
<rect x="496" y="88" width="12" height="12" fill="black"/>
<rect x="508" y="88" width="12" height="12" fill="black"/>
<rect x="520" y="88" width="12" height="12" fill="black"/>
<rect x="40" y="100" width="12" height="12" fill="black"/>
<rect x="52" y="100" width="12" height="12" fill="black"/>
<rect x="64" y="100" width="12" height="12" fill="black"/>
<rect x="88" y="100" width="12" height="12" fill="black"/>
<rect x="100" y="100" width="12" height="12" fill="black"/>
<rect x="112" y="100" width="12" height="12" fill="black"/>
<rect x="136" y="100" width="12" height="12" fill="black"/>
<rect x="148" y="100" width="12" height="12" fill="black"/>
<rect x="172" y="100" width="12" height="12" fill="black"/>
<rect x="208" y="100" width="12" height="12" fill="black"/>
<rect x="220" y="100" width="12" height="12" fill="black"/>
<rect x="268" y="100" width="12" height="12" fill="black"/>
<rect x="304" y="100" width="12" height="12" fill="black"/>
<rect x="316" y="100" width="12" height="12" fill="black"/>
<rect x="400" y="100" width="12" height="12" fill="black"/>
<rect x="412" y="100" width="12" height="12" fill="black"/>
<rect x="424" y="100" width="12" height="12" fill="black"/>
<rect x="448" y="100" width="12" height="12" fill="black"/>
<rect x="460" y="100" width="12" height="12" fill="black"/>
<rect x="472" y="100" width="12" height="12" fill="black"/>
<rect x="496" y="100" width="12" height="12" fill="black"/>
<rect x="508" y="100" width="12" height="12" fill="black"/>
<rect x="520" y="100" width="12" height="12" fill="black"/>
<rect x="40" y="112" width="12" height="12" fill="black"/>
<rect x="52" y="112" width="12" height="12" fill="black"/>
<rect x="64" y="112" width="12" height="12" fill="black"/>
<rect x="88" y="112" width="12" height="12" fill="black"/>
<rect x="100" y="112" width="12" height="12" fill="black"/>
<rect x="112" y="112" width="12" height="12" fill="black"/>
<rect x="136" y="112" width="12" height="12" fill="black"/>
<rect x="184" y="112" width="12" height="12" fill="black"/>
<rect x="220" y="112" width="12" height="12" fill="black"/>
<rect x="316" y="112" width="12" height="12" fill="black"/>
<rect x="328" y="112" width="12" height="12" fill="black"/>
<rect x="340" y="112" width="12" height="12" fill="black"/>
<rect x="364" y="112" width="12" height="12" fill="black"/>
<rect x="412" y="112" width="12" height="12" fill="black"/>
<rect x="424" y="112" width="12" height="12" fill="black"/>
<rect x="448" y="112" width="12" height="12" fill="black"/>
<rect x="460" y="112" width="12" height="12" fill="black"/>
<rect x="472" y="112" width="12" height="12" fill="black"/>
<rect x="496" y="112" width="12" height="12" fill="black"/>
<rect x="508" y="112" width="12" height="12" fill="black"/>
<rect x="520" y="112" width="12" height="12" fill="black"/>
<rect x="40" y="124" width="12" height="12" fill="black"/>
<rect x="52" y="124" width="12" height="12" fill="black"/>
<rect x="64" y="124" width="12" height="12" fill="black"/>
<rect x="136" y="124" width="12" height="12" fill="black"/>
<rect x="148" y="124" width="12" height="12" fill="black"/>
<rect x="160" y="124" width="12" height="12" fill="black"/>
<rect x="184" y="124" width="12" height="12" fill="black"/>
<rect x="232" y="124" width="12" height="12" fill="black"/>
<rect x="316" y="124" width="12" height="12" fill="black"/>
<rect x="352" y="124" width="12" height="12" fill="black"/>
<rect x="364" y="124" width="12" height="12" fill="black"/>
<rect x="376" y="124" width="12" height="12" fill="black"/>
<rect x="388" y="124" width="12" height="12" fill="black"/>
<rect x="412" y="124" width="12" height="12" fill="black"/>
<rect x="424" y="124" width="12" height="12" fill="black"/>
<rect x="496" y="124" width="12" height="12" fill="black"/>
<rect x="508" y="124" width="12" height="12" fill="black"/>
<rect x="520" y="124" width="12" height="12" fill="black"/>
<rect x="40" y="136" width="12" height="12" fill="black"/>
<rect x="52" y="136" width="12" height="12" fill="black"/>
<rect x="64" y="136" width="12" height="12" fill="black"/>
<rect x="76" y="136" width="12" height="12" fill="black"/>
<rect x="88" y="136" width="12" height="12" fill="black"/>
<rect x="100" y="136" width="12" height="12" fill="black"/>
<rect x="112" y="136" width="12" height="12" fill="black"/>
<rect x="124" y="136" width="12" height="12" fill="black"/>
<rect x="136" y="136" width="12" height="12" fill="black"/>
<rect x="160" y="136" width="12" height="12" fill="black"/>
<rect x="232" y="136" width="12" height="12" fill="black"/>
<rect x="256" y="136" width="12" height="12" fill="black"/>
<rect x="280" y="136" width="12" height="12" fill="black"/>
<rect x="328" y="136" width="12" height="12" fill="black"/>
<rect x="364" y="136" width="12" height="12" fill="black"/>
<rect x="400" y="136" width="12" height="12" fill="black"/>
<rect x="424" y="136" width="12" height="12" fill="black"/>
<rect x="436" y="136" width="12" height="12" fill="black"/>
<rect x="448" y="136" width="12" height="12" fill="black"/>
<rect x="460" y="136" width="12" height="12" fill="black"/>
<rect x="472" y="136" width="12" height="12" fill="black"/>
<rect x="484" y="136" width="12" height="12" fill="black"/>
<rect x="496" y="136" width="12" height="12" fill="black"/>
<rect x="508" y="136" width="12" height="12" fill="black"/>
<rect x="520" y="136" width="12" height="12" fill="black"/>
<rect x="40" y="148" width="12" height="12" fill="black"/>
<rect x="52" y="148" width="12" height="12" fill="black"/>
<rect x="64" y="148" width="12" height="12" fill="black"/>
<rect x="124" y="148" width="12" height="12" fill="black"/>
<rect x="136" y="148" width="12" height="12" fill="black"/>
<rect x="160" y="148" width="12" height="12" fill="black"/>
<rect x="184" y="148" width="12" height="12" fill="black"/>
<rect x="208" y="148" width="12" height="12" fill="black"/>
<rect x="232" y="148" width="12" height="12" fill="black"/>
<rect x="256" y="148" width="12" height="12" fill="black"/>
<rect x="280" y="148" width="12" height="12" fill="black"/>
<rect x="304" y="148" width="12" height="12" fill="black"/>
<rect x="328" y="148" width="12" height="12" fill="black"/>
<rect x="352" y="148" width="12" height="12" fill="black"/>
<rect x="376" y="148" width="12" height="12" fill="black"/>
<rect x="400" y="148" width="12" height="12" fill="black"/>
<rect x="436" y="148" width="12" height="12" fill="black"/>
<rect x="508" y="148" width="12" height="12" fill="black"/>
<rect x="520" y="148" width="12" height="12" fill="black"/>
<rect x="40" y="160" width="12" height="12" fill="black"/>
<rect x="52" y="160" width="12" height="12" fill="black"/>
<rect x="64" y="160" width="12" height="12" fill="black"/>
<rect x="88" y="160" width="12" height="12" fill="black"/>
<rect x="124" y="160" width="12" height="12" fill="black"/>
<rect x="136" y="160" width="12" height="12" fill="black"/>
<rect x="148" y="160" width="12" height="12" fill="black"/>
<rect x="208" y="160" width="12" height="12" fill="black"/>
<rect x="292" y="160" width="12" height="12" fill="black"/>
<rect x="316" y="160" width="12" height="12" fill="black"/>
<rect x="352" y="160" width="12" height="12" fill="black"/>
<rect x="364" y="160" width="12" height="12" fill="black"/>
<rect x="388" y="160" width="12" height="12" fill="black"/>
<rect x="424" y="160" width="12" height="12" fill="black"/>
<rect x="436" y="160" width="12" height="12" fill="black"/>
<rect x="484" y="160" width="12" height="12" fill="black"/>
<rect x="508" y="160" width="12" height="12" fill="black"/>
<rect x="520" y="160" width="12" height="12" fill="black"/>
<rect x="40" y="172" width="12" height="12" fill="black"/>
<rect x="52" y="172" width="12" height="12" fill="black"/>
<rect x="112" y="172" width="12" height="12" fill="black"/>
<rect x="136" y="172" width="12" height="12" fill="black"/>
<rect x="172" y="172" width="12" height="12" fill="black"/>
<rect x="196" y="172" width="12" height="12" fill="black"/>
<rect x="244" y="172" width="12" height="12" fill="black"/>
<rect x="292" y="172" width="12" height="12" fill="black"/>
<rect x="316" y="172" width="12" height="12" fill="black"/>
<rect x="352" y="172" width="12" height="12" fill="black"/>
<rect x="436" y="172" width="12" height="12" fill="black"/>
<rect x="460" y="172" width="12" height="12" fill="black"/>
<rect x="484" y="172" width="12" height="12" fill="black"/>
<rect x="508" y="172" width="12" height="12" fill="black"/>
<rect x="520" y="172" width="12" height="12" fill="black"/>
<rect x="40" y="184" width="12" height="12" fill="black"/>
<rect x="52" y="184" width="12" height="12" fill="black"/>
<rect x="88" y="184" width="12" height="12" fill="black"/>
<rect x="136" y="184" width="12" height="12" fill="black"/>
<rect x="148" y="184" width="12" height="12" fill="black"/>
<rect x="172" y="184" width="12" height="12" fill="black"/>
<rect x="196" y="184" width="12" height="12" fill="black"/>
<rect x="220" y="184" width="12" height="12" fill="black"/>
<rect x="256" y="184" width="12" height="12" fill="black"/>
<rect x="268" y="184" width="12" height="12" fill="black"/>
<rect x="292" y="184" width="12" height="12" fill="black"/>
<rect x="316" y="184" width="12" height="12" fill="black"/>
<rect x="340" y="184" width="12" height="12" fill="black"/>
<rect x="400" y="184" width="12" height="12" fill="black"/>
<rect x="484" y="184" width="12" height="12" fill="black"/>
<rect x="496" y="184" width="12" height="12" fill="black"/>
<rect x="508" y="184" width="12" height="12" fill="black"/>
<rect x="520" y="184" width="12" height="12" fill="black"/>
<rect x="40" y="196" width="12" height="12" fill="black"/>
<rect x="52" y="196" width="12" height="12" fill="black"/>
<rect x="64" y="196" width="12" height="12" fill="black"/>
<rect x="88" y="196" width="12" height="12" fill="black"/>
<rect x="100" y="196" width="12" height="12" fill="black"/>
<rect x="160" y="196" width="12" height="12" fill="black"/>
<rect x="172" y="196" width="12" height="12" fill="black"/>
<rect x="220" y="196" width="12" height="12" fill="black"/>
<rect x="508" y="196" width="12" height="12" fill="black"/>
<rect x="520" y="196" width="12" height="12" fill="black"/>
<rect x="40" y="208" width="12" height="12" fill="black"/>
<rect x="52" y="208" width="12" height="12" fill="black"/>
<rect x="148" y="208" width="12" height="12" fill="black"/>
<rect x="508" y="208" width="12" height="12" fill="black"/>
<rect x="520" y="208" width="12" height="12" fill="black"/>
<rect x="40" y="220" width="12" height="12" fill="black"/>
<rect x="52" y="220" width="12" height="12" fill="black"/>
<rect x="508" y="220" width="12" height="12" fill="black"/>
<rect x="520" y="220" width="12" height="12" fill="black"/>
<rect x="40" y="232" width="12" height="12" fill="black"/>
<rect x="52" y="232" width="12" height="12" fill="black"/>
<rect x="148" y="232" width="12" height="12" fill="black"/>
<rect x="508" y="232" width="12" height="12" fill="black"/>
<rect x="520" y="232" width="12" height="12" fill="black"/>
<rect x="40" y="244" width="12" height="12" fill="black"/>
<rect x="52" y="244" width="12" height="12" fill="black"/>
<rect x="508" y="244" width="12" height="12" fill="black"/>
<rect x="520" y="244" width="12" height="12" fill="black"/>
<rect x="40" y="256" width="12" height="12" fill="black"/>
<rect x="52" y="256" width="12" height="12" fill="black"/>
<rect x="148" y="256" width="12" height="12" fill="black"/>
<rect x="508" y="256" width="12" height="12" fill="black"/>
<rect x="520" y="256" width="12" height="12" fill="black"/>
<rect x="40" y="268" width="12" height="12" fill="black"/>
<rect x="52" y="268" width="12" height="12" fill="black"/>
<rect x="508" y="268" width="12" height="12" fill="black"/>
<rect x="520" y="268" width="12" height="12" fill="black"/>
<rect x="40" y="280" width="12" height="12" fill="black"/>
<rect x="52" y="280" width="12" height="12" fill="black"/>
<rect x="148" y="280" width="12" height="12" fill="black"/>
<rect x="508" y="280" width="12" height="12" fill="black"/>
<rect x="520" y="280" width="12" height="12" fill="black"/>
<rect x="40" y="292" width="12" height="12" fill="black"/>
<rect x="52" y="292" width="12" height="12" fill="black"/>
<rect x="508" y="292" width="12" height="12" fill="black"/>
<rect x="520" y="292" width="12" height="12" fill="black"/>
<rect x="40" y="304" width="12" height="12" fill="black"/>
<rect x="52" y="304" width="12" height="12" fill="black"/>
<rect x="148" y="304" width="12" height="12" fill="black"/>
<rect x="508" y="304" width="12" height="12" fill="black"/>
<rect x="520" y="304" width="12" height="12" fill="black"/>
<rect x="40" y="316" width="12" height="12" fill="black"/>
<rect x="52" y="316" width="12" height="12" fill="black"/>
<rect x="508" y="316" width="12" height="12" fill="black"/>
<rect x="520" y="316" width="12" height="12" fill="black"/>
<rect x="40" y="328" width="12" height="12" fill="black"/>
<rect x="52" y="328" width="12" height="12" fill="black"/>
<rect x="148" y="328" width="12" height="12" fill="black"/>
<rect x="508" y="328" width="12" height="12" fill="black"/>
<rect x="520" y="328" width="12" height="12" fill="black"/>
<rect x="40" y="340" width="12" height="12" fill="black"/>
<rect x="52" y="340" width="12" height="12" fill="black"/>
<rect x="508" y="340" width="12" height="12" fill="black"/>
<rect x="520" y="340" width="12" height="12" fill="black"/>
<rect x="40" y="352" width="12" height="12" fill="black"/>
<rect x="52" y="352" width="12" height="12" fill="black"/>
<rect x="148" y="352" width="12" height="12" fill="black"/>
<rect x="508" y="352" width="12" height="12" fill="black"/>
<rect x="520" y="352" width="12" height="12" fill="black"/>
<rect x="40" y="364" width="12" height="12" fill="black"/>
<rect x="52" y="364" width="12" height="12" fill="black"/>
<rect x="508" y="364" width="12" height="12" fill="black"/>
<rect x="520" y="364" width="12" height="12" fill="black"/>
<rect x="40" y="376" width="12" height="12" fill="black"/>
<rect x="52" y="376" width="12" height="12" fill="black"/>
<rect x="148" y="376" width="12" height="12" fill="black"/>
<rect x="508" y="376" width="12" height="12" fill="black"/>
<rect x="520" y="376" width="12" height="12" fill="black"/>
<rect x="40" y="388" width="12" height="12" fill="black"/>
<rect x="52" y="388" width="12" height="12" fill="black"/>
<rect x="508" y="388" width="12" height="12" fill="black"/>
<rect x="520" y="388" width="12" height="12" fill="black"/>
<rect x="40" y="400" width="12" height="12" fill="black"/>
<rect x="52" y="400" width="12" height="12" fill="black"/>
<rect x="148" y="400" width="12" height="12" fill="black"/>
<rect x="508" y="400" width="12" height="12" fill="black"/>
<rect x="520" y="400" width="12" height="12" fill="black"/>
<rect x="40" y="412" width="12" height="12" fill="black"/>
<rect x="52" y="412" width="12" height="12" fill="black"/>
<rect x="508" y="412" width="12" height="12" fill="black"/>
<rect x="520" y="412" width="12" height="12" fill="black"/>
<rect x="40" y="424" width="12" height="12" fill="black"/>
<rect x="52" y="424" width="12" height="12" fill="black"/>
<rect x="64" y="424" width="12" height="12" fill="black"/>
<rect x="76" y="424" width="12" height="12" fill="black"/>
<rect x="88" y="424" width="12" height="12" fill="black"/>
<rect x="100" y="424" width="12" height="12" fill="black"/>
<rect x="112" y="424" width="12" height="12" fill="black"/>
<rect x="124" y="424" width="12" height="12" fill="black"/>
<rect x="136" y="424" width="12" height="12" fill="black"/>
<rect x="508" y="424" width="12" height="12" fill="black"/>
<rect x="520" y="424" width="12" height="12" fill="black"/>
<rect x="40" y="436" width="12" height="12" fill="black"/>
<rect x="52" y="436" width="12" height="12" fill="black"/>
<rect x="64" y="436" width="12" height="12" fill="black"/>
<rect x="136" y="436" width="12" height="12" fill="black"/>
<rect x="508" y="436" width="12" height="12" fill="black"/>
<rect x="520" y="436" width="12" height="12" fill="black"/>
<rect x="40" y="448" width="12" height="12" fill="black"/>
<rect x="52" y="448" width="12" height="12" fill="black"/>
<rect x="64" y="448" width="12" height="12" fill="black"/>
<rect x="88" y="448" width="12" height="12" fill="black"/>
<rect x="100" y="448" width="12" height="12" fill="black"/>
<rect x="112" y="448" width="12" height="12" fill="black"/>
<rect x="136" y="448" width="12" height="12" fill="black"/>
<rect x="508" y="448" width="12" height="12" fill="black"/>
<rect x="520" y="448" width="12" height="12" fill="black"/>
<rect x="40" y="460" width="12" height="12" fill="black"/>
<rect x="52" y="460" width="12" height="12" fill="black"/>
<rect x="64" y="460" width="12" height="12" fill="black"/>
<rect x="88" y="460" width="12" height="12" fill="black"/>
<rect x="100" y="460" width="12" height="12" fill="black"/>
<rect x="112" y="460" width="12" height="12" fill="black"/>
<rect x="136" y="460" width="12" height="12" fill="black"/>
<rect x="508" y="460" width="12" height="12" fill="black"/>
<rect x="520" y="460" width="12" height="12" fill="black"/>
<rect x="40" y="472" width="12" height="12" fill="black"/>
<rect x="52" y="472" width="12" height="12" fill="black"/>
<rect x="64" y="472" width="12" height="12" fill="black"/>
<rect x="88" y="472" width="12" height="12" fill="black"/>
<rect x="100" y="472" width="12" height="12" fill="black"/>
<rect x="112" y="472" width="12" height="12" fill="black"/>
<rect x="136" y="472" width="12" height="12" fill="black"/>
<rect x="508" y="472" width="12" height="12" fill="black"/>
<rect x="520" y="472" width="12" height="12" fill="black"/>
<rect x="40" y="484" width="12" height="12" fill="black"/>
<rect x="52" y="484" width="12" height="12" fill="black"/>
<rect x="64" y="484" width="12" height="12" fill="black"/>
<rect x="136" y="484" width="12" height="12" fill="black"/>
<rect x="508" y="484" width="12" height="12" fill="black"/>
<rect x="520" y="484" width="12" height="12" fill="black"/>
<rect x="40" y="496" width="12" height="12" fill="black"/>
<rect x="52" y="496" width="12" height="12" fill="black"/>
<rect x="64" y="496" width="12" height="12" fill="black"/>
<rect x="76" y="496" width="12" height="12" fill="black"/>
<rect x="88" y="496" width="12" height="12" fill="black"/>
<rect x="100" y="496" width="12" height="12" fill="black"/>
<rect x="112" y="496" width="12" height="12" fill="black"/>
<rect x="124" y="496" width="12" height="12" fill="black"/>
<rect x="136" y="496" width="12" height="12" fill="black"/>
<rect x="508" y="496" width="12" height="12" fill="black"/>
<rect x="520" y="496" width="12" height="12" fill="black"/>
<rect x="40" y="508" width="12" height="12" fill="black"/>
<rect x="52" y="508" width="12" height="12" fill="black"/>
<rect x="64" y="508" width="12" height="12" fill="black"/>
<rect x="76" y="508" width="12" height="12" fill="black"/>
<rect x="88" y="508" width="12" height="12" fill="black"/>
<rect x="100" y="508" width="12" height="12" fill="black"/>
<rect x="112" y="508" width="12" height="12" fill="black"/>
<rect x="124" y="508" width="12" height="12" fill="black"/>
<rect x="136" y="508" width="12" height="12" fill="black"/>
<rect x="148" y="508" width="12" height="12" fill="black"/>
<rect x="160" y="508" width="12" height="12" fill="black"/>
<rect x="172" y="508" width="12" height="12" fill="black"/>
<rect x="184" y="508" width="12" height="12" fill="black"/>
<rect x="196" y="508" width="12" height="12" fill="black"/>
<rect x="208" y="508" width="12" height="12" fill="black"/>
<rect x="220" y="508" width="12" height="12" fill="black"/>
<rect x="232" y="508" width="12" height="12" fill="black"/>
<rect x="244" y="508" width="12" height="12" fill="black"/>
<rect x="256" y="508" width="12" height="12" fill="black"/>
<rect x="268" y="508" width="12" height="12" fill="black"/>
<rect x="280" y="508" width="12" height="12" fill="black"/>
<rect x="292" y="508" width="12" height="12" fill="black"/>
<rect x="304" y="508" width="12" height="12" fill="black"/>
<rect x="316" y="508" width="12" height="12" fill="black"/>
<rect x="328" y="508" width="12" height="12" fill="black"/>
<rect x="340" y="508" width="12" height="12" fill="black"/>
<rect x="352" y="508" width="12" height="12" fill="black"/>
<rect x="364" y="508" width="12" height="12" fill="black"/>
<rect x="376" y="508" width="12" height="12" fill="black"/>
<rect x="388" y="508" width="12" height="12" fill="black"/>
<rect x="400" y="508" width="12" height="12" fill="black"/>
<rect x="412" y="508" width="12" height="12" fill="black"/>
<rect x="424" y="508" width="12" height="12" fill="black"/>
<rect x="436" y="508" width="12" height="12" fill="black"/>
<rect x="448" y="508" width="12" height="12" fill="black"/>
<rect x="460" y="508" width="12" height="12" fill="black"/>
<rect x="472" y="508" width="12" height="12" fill="black"/>
<rect x="484" y="508" width="12" height="12" fill="black"/>
<rect x="496" y="508" width="12" height="12" fill="black"/>
<rect x="508" y="508" width="12" height="12" fill="black"/>
<rect x="520" y="508" width="12" height="12" fill="black"/>
<rect x="40" y="520" width="12" height="12" fill="black"/>
<rect x="52" y="520" width="12" height="12" fill="black"/>
<rect x="64" y="520" width="12" height="12" fill="black"/>
<rect x="76" y="520" width="12" height="12" fill="black"/>
<rect x="88" y="520" width="12" height="12" fill="black"/>
<rect x="100" y="520" width="12" height="12" fill="black"/>
<rect x="112" y="520" width="12" height="12" fill="black"/>
<rect x="124" y="520" width="12" height="12" fill="black"/>
<rect x="136" y="520" width="12" height="12" fill="black"/>
<rect x="148" y="520" width="12" height="12" fill="black"/>
<rect x="160" y="520" width="12" height="12" fill="black"/>
<rect x="172" y="520" width="12" height="12" fill="black"/>
<rect x="184" y="520" width="12" height="12" fill="black"/>
<rect x="196" y="520" width="12" height="12" fill="black"/>
<rect x="208" y="520" width="12" height="12" fill="black"/>
<rect x="220" y="520" width="12" height="12" fill="black"/>
<rect x="232" y="520" width="12" height="12" fill="black"/>
<rect x="244" y="520" width="12" height="12" fill="black"/>
<rect x="256" y="520" width="12" height="12" fill="black"/>
<rect x="268" y="520" width="12" height="12" fill="black"/>
<rect x="280" y="520" width="12" height="12" fill="black"/>
<rect x="292" y="520" width="12" height="12" fill="black"/>
<rect x="304" y="520" width="12" height="12" fill="black"/>
<rect x="316" y="520" width="12" height="12" fill="black"/>
<rect x="328" y="520" width="12" height="12" fill="black"/>
<rect x="340" y="520" width="12" height="12" fill="black"/>
<rect x="352" y="520" width="12" height="12" fill="black"/>
<rect x="364" y="520" width="12" height="12" fill="black"/>
<rect x="376" y="520" width="12" height="12" fill="black"/>
<rect x="388" y="520" width="12" height="12" fill="black"/>
<rect x="400" y="520" width="12" height="12" fill="black"/>
<rect x="412" y="520" width="12" height="12" fill="black"/>
<rect x="424" y="520" width="12" height="12" fill="black"/>
<rect x="436" y="520" width="12" height="12" fill="black"/>
<rect x="448" y="520" width="12" height="12" fill="black"/>
<rect x="460" y="520" width="12" height="12" fill="black"/>
<rect x="472" y="520" width="12" height="12" fill="black"/>
<rect x="484" y="520" width="12" height="12" fill="black"/>
<rect x="496" y="520" width="12" height="12" fill="black"/>
<rect x="508" y="520" width="12" height="12" fill="black"/>
<rect x="520" y="520" width="12" height="12" fill="black"/>
<text x="40" y="562" font-family="monospace" font-size="16" fill="black">FORMAT: TT-SLATE-BLOCK v1</text>
<text x="40" y="584" font-family="monospace" font-size="16" fill="black">BLOCK_ID: 0001</text>
<text x="40" y="606" font-family="monospace" font-size="16" fill="black">PAYLOAD_BYTES: 37</text>
<text x="40" y="628" font-family="monospace" font-size="16" fill="black">CHECK: SHA256:ff51a32efcfcf78b</text>
</svg>